<svg width="478" height="290" xmlns="http://www.w3.org/2000/svg" xmlns:xlink="http://www.w3.org/1999/xlink" overflow="hidden"><defs><clipPath id="clip0"><path d="M995 681 1473 681 1473 971 995 971Z" fill-rule="evenodd" clip-rule="evenodd"/></clipPath><clipPath id="clip1"><path d="M996 682 1472 682 1472 971 996 971Z" fill-rule="evenodd" clip-rule="evenodd"/></clipPath><clipPath id="clip2"><path d="M996 682 1472 682 1472 971 996 971Z" fill-rule="evenodd" clip-rule="evenodd"/></clipPath><clipPath id="clip3"><path d="M996 682 1472 682 1472 971 996 971Z" fill-rule="evenodd" clip-rule="evenodd"/></clipPath></defs><g clip-path="url(#clip0)" transform="translate(-995 -681)"><g clip-path="url(#clip1)"><g clip-path="url(#clip2)"><g clip-path="url(#clip3)"><path d="M528.21 426.123C523.953 427.912 519.499 429.527 514.855 430.945 510.198 432.376 505.336 433.621 500.264 434.67 495.175 435.729 489.871 436.606 484.35 437.284 475.99 438.331 467.456 438.924 458.763 439.169 450.036 439.43 441.159 439.342 432.133 439.01 423.09 438.689 413.897 438.133 404.562 437.455 395.208 436.779 385.72 435.964 376.082 435.149 366.569 434.348 356.961 433.536 347.32 432.845 337.667 432.141 327.972 431.561 318.298 431.215 308.607 430.882 298.928 430.771 289.308 431.032 279.666 431.303 270.072 431.918 260.578 433.04 254.603 433.744 248.802 434.632 243.147 435.693 237.481 436.766 231.964 438.012 226.58 439.453 221.179 440.896 215.914 442.537 210.759 444.375 205.587 446.211 200.531 448.257 195.568 450.5L91.598 312.06C96.3034 310.176 101.074 308.474 105.94 306.955 110.792 305.452 115.737 304.119 120.793 302.949 125.836 301.801 130.99 300.813 136.281 299.989 141.552 299.177 146.965 298.534 152.521 298.04 160.881 297.3 169.259 296.944 177.682 296.882 186.086 296.807 194.544 297.029 203.072 297.437 211.592 297.857 220.186 298.46 228.881 299.164 237.561 299.865 246.348 300.666 255.238 301.481 264.005 302.283 272.84 303.096 281.695 303.813 290.536 304.514 299.389 305.13 308.207 305.55 317.011 305.97 325.765 306.18 334.423 306.094 343.053 306.019 351.573 305.638 359.929 304.846 365.151 304.367 370.19 303.737 375.055 302.962 379.906 302.183 384.578 301.26 389.092 300.197 393.587 299.138 397.922 297.929 402.106 296.572 406.275 295.217 410.296 293.726 414.173 292.072L540.411 420.18C536.522 422.351 532.459 424.324 528.21 426.123ZM553.949 421.771C553.799 421.474 553.571 421.165 553.265 420.858L420.179 286.857C419.952 286.636 419.66 286.411 419.333 286.204 419.007 285.993 418.636 285.796 418.228 285.609 417.824 285.44 417.385 285.276 416.922 285.129 416.46 284.993 415.974 284.882 415.474 284.797 415.209 284.749 414.937 284.708 414.672 284.674 414.41 284.647 414.149 284.623 413.89 284.613 413.628 284.6 413.377 284.6 413.132 284.6 412.877 284.6 412.636 284.613 412.401 284.637 412.207 284.647 412.02 284.674 411.836 284.708 411.653 284.736 411.473 284.773 411.306 284.81 411.133 284.847 410.973 284.895 410.82 284.946 410.664 284.993 410.518 285.055 410.382 285.116 406.448 286.979 402.365 288.668 398.119 290.185 393.852 291.701 389.425 293.059 384.812 294.232 380.182 295.415 375.375 296.425 370.366 297.263 365.342 298.101 360.12 298.769 354.687 299.275 346.844 300.002 338.886 300.347 330.803 300.42 322.702 300.494 314.482 300.286 306.147 299.891 297.798 299.483 289.339 298.893 280.75 298.189 272.157 297.498 263.446 296.696 254.597 295.882 245.854 295.07 237.024 294.255 228.159 293.54 219.281 292.814 210.366 292.194 201.444 291.762 192.516 291.334 183.576 291.1 174.667 291.161 165.732 291.223 156.83 291.592 147.977 292.37 141.724 292.911 135.651 293.639 129.744 294.564 123.813 295.487 118.048 296.612 112.414 297.929 106.759 299.248 101.247 300.777 95.8401 302.505 90.4147 304.243 85.1 306.192 79.878 308.363 79.4711 308.523 79.1317 308.719 78.8729 308.94 78.608 309.162 78.4166 309.396 78.2988 309.644 78.188 309.892 78.1457 310.163 78.188 310.434 78.2323 310.704 78.3552 310.974 78.5586 311.258L187.194 457.58C187.43 457.901 187.725 458.197 188.077 458.468 188.428 458.738 188.829 458.998 189.278 459.221 189.729 459.455 190.222 459.664 190.746 459.836 191.271 460.01 191.825 460.157 192.404 460.267 192.726 460.329 193.053 460.367 193.367 460.403 193.687 460.44 194.008 460.453 194.322 460.466 194.637 460.479 194.945 460.479 195.246 460.466 195.55 460.453 195.846 460.429 196.136 460.39 196.375 460.367 196.61 460.329 196.832 460.28 197.059 460.244 197.276 460.182 197.485 460.133 197.695 460.071 197.898 459.996 198.09 459.922 198.287 459.849 198.465 459.775 198.639 459.689 203.756 457.075 208.984 454.718 214.33 452.599 219.656 450.49 225.101 448.616 230.7 446.976 236.273 445.347 242.001 443.942 247.895 442.77 253.764 441.587 259.813 440.626 266.052 439.886 275.025 438.813 284.044 438.207 293.144 437.949 302.22 437.689 311.38 437.789 320.637 438.109 329.877 438.442 339.224 439.01 348.69 439.688 358.142 440.378 367.708 441.18 377.404 442.005 386.954 442.807 396.579 443.609 406.203 444.299 415.817 444.991 425.439 445.558 434.992 445.89 444.525 446.211 453.99 446.298 463.305 446.024 472.597 445.741 481.735 445.102 490.639 443.977 496.891 443.188 502.864 442.191 508.58 440.972 514.284 439.749 519.721 438.318 524.918 436.665 530.1 435.015 535.029 433.138 539.734 431.055 544.426 428.972 548.883 426.667 553.133 424.15 553.456 423.955 553.704 423.717 553.878 423.473 554.044 423.225 554.139 422.954 554.15 422.671 554.157 422.374 554.088 422.081 553.949 421.771" fill="#040606" transform="matrix(1 0 -0 1.0007 917.853 510.118)"/><path d="M445.177 361.35C442.409 362.175 439.569 362.928 436.646 363.593 433.714 364.261 430.701 364.851 427.602 365.357 424.494 365.874 421.294 366.306 417.994 366.664 414.973 366.983 411.897 367.244 408.775 367.44 405.651 367.638 402.474 367.775 399.259 367.847 396.04 367.935 392.771 367.958 389.468 367.935 386.155 367.909 382.804 367.847 379.409 367.737L350.49 318.93C352.282 318.867 354.071 318.808 355.857 318.72 357.645 318.636 359.428 318.535 361.216 318.424 362.996 318.313 364.782 318.19 366.554 318.043 368.337 317.907 370.106 317.746 371.883 317.573 375.151 317.268 378.345 316.91 381.466 316.5 384.577 316.094 387.617 315.637 390.596 315.146 393.572 314.638 396.484 314.097 399.338 313.504 402.188 312.913 404.978 312.274 407.721 311.568L453.255 358.625C450.635 359.609 447.939 360.523 445.177 361.35ZM498.116 416.458C495.297 417.38 492.406 418.208 489.427 418.949 486.438 419.699 483.368 420.354 480.2 420.934 477.022 421.511 473.75 422.006 470.371 422.414 465.93 422.942 461.38 423.337 456.725 423.584 452.064 423.842 447.293 423.978 442.434 423.991 437.569 424.014 432.605 423.93 427.564 423.77 422.513 423.598 417.385 423.337 412.18 423.029L381.28 370.882C384.738 370.993 388.161 371.054 391.543 371.067 394.922 371.078 398.273 371.054 401.576 370.967 404.874 370.869 408.136 370.735 411.355 370.523 414.568 370.315 417.735 370.054 420.859 369.711 424.179 369.353 427.39 368.92 430.515 368.414 433.645 367.896 436.671 367.316 439.619 366.664 442.564 366.011 445.423 365.271 448.21 364.47 450.994 363.655 453.706 362.768 456.342 361.807L506.329 413.449C503.664 414.544 500.924 415.544 498.116 416.458ZM397.709 422.029C395.029 421.834 392.328 421.611 389.616 421.39 386.895 421.178 384.165 420.947 381.422 420.712 378.669 420.477 375.908 420.243 373.133 420.008 367.505 419.529 361.843 419.046 356.159 418.59 350.477 418.121 344.762 417.69 339.027 417.283 333.287 416.888 327.523 416.53 321.738 416.246 315.956 415.962 310.148 415.741 304.32 415.607L271.193 362.928C275.676 363.149 280.139 363.407 284.597 363.704 289.041 363.987 293.482 364.32 297.909 364.666 302.33 365.011 306.738 365.369 311.127 365.751 315.519 366.122 319.89 366.504 324.235 366.886 328.638 367.279 333.003 367.661 337.33 368.033 341.654 368.401 345.943 368.76 350.194 369.092 354.439 369.426 358.643 369.722 362.813 369.993 366.973 370.253 371.092 370.474 375.167 370.66L405.706 422.609C403.06 422.437 400.392 422.241 397.709 422.029ZM285.656 415.532C281.552 415.594 277.439 415.718 273.314 415.901 269.189 416.086 265.046 416.334 260.903 416.653 256.747 416.976 252.586 417.37 248.418 417.85 244.731 418.27 241.118 418.75 237.567 419.281 234.009 419.81 230.519 420.403 227.079 421.044 223.633 421.687 220.242 422.401 216.893 423.163 213.54 423.93 210.236 424.755 206.954 425.657L195.499 410.773 281.552 389.28 297.934 415.506C293.852 415.47 289.758 415.47 285.656 415.532ZM174.703 368.871C177.964 368.17 181.269 367.527 184.624 366.934 187.972 366.357 191.369 365.826 194.827 365.344 198.28 364.877 201.794 364.456 205.382 364.086 210.395 363.57 215.395 363.175 220.39 362.879 225.378 362.595 230.353 362.41 235.316 362.312 240.274 362.214 245.224 362.2 250.163 362.263 255.088 362.322 260.015 362.458 264.924 362.645L279.412 385.851 192.879 407.37 164.998 371.165C168.199 370.338 171.43 369.575 174.703 368.871ZM133.635 315.898C136.73 315.108 139.862 314.406 143.05 313.788 146.236 313.158 149.474 312.617 152.779 312.148 156.077 311.694 159.438 311.297 162.884 310.989 166.071 310.692 169.29 310.469 172.54 310.312 175.789 310.151 179.068 310.053 182.379 310.003 185.691 309.955 189.025 309.955 192.392 310.003 195.759 310.053 199.156 310.151 202.583 310.274L217.097 359.821C215.919 359.893 214.742 359.968 213.558 360.055 212.374 360.141 211.196 360.228 210.013 360.326 208.824 360.425 207.639 360.523 206.456 360.633 205.265 360.744 204.081 360.855 202.893 360.979 199.303 361.337 195.789 361.757 192.33 362.224 188.871 362.693 185.474 363.212 182.126 363.792 178.773 364.372 175.467 365.001 172.206 365.679 168.932 366.367 165.701 367.107 162.495 367.909L124.448 318.499C127.475 317.55 130.533 316.686 133.635 315.898ZM220.371 311.259C224.324 311.533 228.307 311.83 232.326 312.163 236.34 312.481 240.39 312.828 244.466 313.196 248.536 313.555 252.642 313.926 256.772 314.295 259.794 314.579 262.825 314.85 265.866 315.12 268.905 315.391 271.945 315.662 274.998 315.921 278.042 316.181 281.101 316.44 284.158 316.686 287.219 316.922 290.277 317.154 293.348 317.378L298.29 361.647C292.151 361.151 285.978 360.708 279.783 360.326 273.579 359.944 267.353 359.622 261.101 359.414 254.843 359.192 248.554 359.068 242.246 359.068 235.927 359.081 229.576 359.205 223.208 359.498L208.607 310.544C212.492 310.743 216.413 310.989 220.371 311.259ZM310.728 318.437C314.518 318.636 318.308 318.783 322.103 318.907 325.901 319.017 329.693 319.092 333.485 319.128 337.27 319.151 341.056 319.141 344.84 319.066L373.312 367.502C369.354 367.329 365.348 367.094 361.301 366.836 357.251 366.578 353.157 366.282 349.029 365.96 344.888 365.64 340.715 365.294 336.504 364.939 332.288 364.567 328.039 364.199 323.76 363.815 322.163 363.681 320.566 363.544 318.97 363.397 317.373 363.26 315.77 363.114 314.167 362.977 312.558 362.83 310.954 362.693 309.345 362.556 307.737 362.423 306.128 362.286 304.511 362.152L299.357 317.783C303.145 318.029 306.93 318.252 310.728 318.437ZM410.854 308.992C410.712 308.904 410.549 308.806 410.366 308.722 410.189 308.636 409.991 308.56 409.781 308.485 409.579 308.412 409.356 308.35 409.122 308.303 408.962 308.252 408.801 308.227 408.644 308.202 408.479 308.18 408.328 308.151 408.165 308.138 408.014 308.129 407.859 308.129 407.705 308.129 407.557 308.129 407.406 308.138 407.274 308.151 407.216 308.151 407.163 308.167 407.113 308.167 407.056 308.18 407.009 308.18 406.959 308.192 406.908 308.202 406.861 308.214 406.808 308.214 406.76 308.227 406.71 308.239 406.666 308.252 403.809 309.018 400.897 309.72 397.927 310.359 394.948 311.014 391.906 311.606 388.807 312.135 385.692 312.68 382.511 313.158 379.249 313.59 375.989 314.024 372.641 314.406 369.209 314.736 359.951 315.624 350.61 316.072 341.219 316.194 331.806 316.314 322.361 316.106 312.908 315.687 303.444 315.268 293.987 314.626 284.573 313.873 275.14 313.124 265.749 312.274 256.433 311.424 247.968 310.655 239.608 309.893 231.376 309.225 223.133 308.56 215.014 307.981 207.029 307.584 199.026 307.204 191.16 306.983 183.428 307.043 175.671 307.093 168.051 307.411 160.566 308.091 156.805 308.434 153.136 308.856 149.536 309.376 145.929 309.88 142.396 310.485 138.924 311.175 135.448 311.864 132.032 312.654 128.666 313.527 125.293 314.406 121.969 315.379 118.684 316.452 118.449 316.528 118.252 316.626 118.098 316.736 117.938 316.846 117.821 316.981 117.745 317.117 117.672 317.252 117.642 317.401 117.66 317.55 117.679 317.697 117.745 317.844 117.863 318.007L202.485 428.503C202.589 428.64 202.725 428.774 202.874 428.898 203.022 429.009 203.194 429.133 203.385 429.23 203.57 429.331 203.78 429.429 203.995 429.514 204.212 429.589 204.44 429.663 204.674 429.713 204.859 429.761 205.044 429.797 205.228 429.824 205.414 429.86 205.599 429.885 205.777 429.898 205.955 429.909 206.135 429.909 206.308 429.909 206.48 429.909 206.647 429.898 206.813 429.873 206.881 429.873 206.942 429.86 207.01 429.847 207.072 429.837 207.14 429.824 207.201 429.811 207.264 429.797 207.325 429.787 207.386 429.774 207.449 429.761 207.51 429.738 207.566 429.726 211.005 428.725 214.477 427.812 217.992 426.961 221.506 426.123 225.064 425.348 228.676 424.644 232.283 423.93 235.945 423.3 239.681 422.72 243.412 422.153 247.216 421.648 251.093 421.205 261.508 419.995 271.896 419.317 282.256 419.033 292.576 418.75 302.871 418.861 313.125 419.219 323.353 419.565 333.544 420.181 343.669 420.908 353.781 421.648 363.83 422.499 373.782 423.35 382.804 424.115 391.691 424.879 400.417 425.52 409.135 426.163 417.688 426.704 426.046 427.024 434.394 427.356 442.548 427.467 450.468 427.284 458.373 427.085 466.041 426.593 473.448 425.693 477.164 425.237 480.744 424.692 484.224 424.054 487.689 423.411 491.039 422.671 494.279 421.834 497.523 421.008 500.657 420.069 503.699 419.046 506.735 418.01 509.682 416.888 512.545 415.656 512.759 415.569 512.93 415.458 513.055 415.323 513.178 415.2 513.257 415.05 513.288 414.903 513.319 414.756 513.301 414.594 513.241 414.42 513.172 414.261 513.058 414.088 512.901 413.928L411.232 309.301C411.125 309.203 410.996 309.09 410.854 308.992" fill="#040606" transform="matrix(1 0 -0 1.0007 917.853 510.118)"/><path d="M273.754 266.965C252.895 266.965 235.983 250.049 235.983 229.197 235.983 208.332 252.895 191.427 273.754 191.427 294.612 191.427 311.522 208.332 311.522 229.197 311.522 250.049 294.612 266.965 273.754 266.965ZM273.754 171.844C242.08 171.844 216.407 197.518 216.407 229.197 216.407 294.537 273.754 349.673 273.754 349.673 273.754 349.673 331.099 294.537 331.099 229.197 331.099 197.518 305.426 171.844 273.754 171.844" fill="#040606" transform="matrix(1 0 -0 1.0007 917.853 510.118)"/></g></g></g></g></svg>